<?xml version="1.0" encoding="UTF-8"?>
<svg id="Ebene_1" xmlns="http://www.w3.org/2000/svg" viewBox="0 0 784.02 692.15">
    <path fill="#d8dcdc" class="cls-1"
        d="M669.73,209.28v337.15c0,26.82-21.75,48.57-48.57,48.57h-5.71c-26.82,0-48.57-21.75-48.57-48.57V209.28c0-15.42,7.19-29.17,18.4-38.06v-34.8c0-18.15,14.71-32.86,32.86-32.86h.34c18.15,0,32.86,14.71,32.86,32.86v34.8c11.21,8.89,18.4,22.64,18.4,38.06Z" />
    <path fill="#d8dcdc" class="cls-1"
        d="M102.86,101.84V643.57c0,26.82-21.75,48.57-48.57,48.57h-5.71c-26.82,0-48.57-21.75-48.57-48.57V48.7C0,25.35,18.94,6.41,42.29,6.41c11.68,0,22.24,4.73,29.9,12.39,7.66,7.66,12.39,18.22,12.39,29.9v15.18c11.14,8.89,18.29,22.59,18.29,37.97Z" />
    <path fill="#d8dcdc" class="cls-1"
        d="M217.15,209.28v337.15c0,26.82-21.75,48.57-48.57,48.57h-5.71c-26.82,0-48.57-21.75-48.57-48.57V209.28c0-15.42,7.19-29.17,18.4-38.06v-34.8c0-18.15,14.71-32.86,32.86-32.86h.34c18.15,0,32.86,14.71,32.86,32.86v34.8c11.21,8.89,18.4,22.64,18.4,38.06Z" />
    <path fill="#d8dcdc" class="cls-1"
        d="M555.44,112.13V643.57c0,26.82-21.75,48.57-48.57,48.57h-5.71c-26.82,0-48.57-21.75-48.57-48.57V112.13c0-15.37,7.14-29.08,18.29-37.97V39.56c0-18.31,14.83-33.14,33.14-33.14,9.15,0,17.44,3.7,23.44,9.7,6,6,9.7,14.29,9.7,23.44v34.61c11.14,8.89,18.29,22.59,18.29,37.97Z" />
    <path fill="#d8dcdc" class="cls-1"
        d="M441.15,209.28v337.15c0,26.82-21.75,48.57-48.57,48.57h-5.71c-26.82,0-48.57-21.75-48.57-48.57V145.85c0-23.35,18.94-42.29,42.29-42.29,11.68,0,22.24,4.73,29.9,12.39,7.66,7.66,12.39,18.22,12.39,29.9v25.46c11.14,8.89,18.29,22.59,18.29,37.97Z" />
    <rect fill="#242424" class="cls-2" x="84.57" y="0" width="48" height="478.43" rx="9.69" ry="9.69" />
    <rect fill="#242424" class="cls-2" x="422.87" y="0" width="48" height="478.43" rx="9.7" ry="9.7" />
    <rect fill="#242424" class="cls-2" x="537.16" y="0" width="48" height="478.43" rx="9.7" ry="9.7" />
    <path fill="#d8dcdc" class="cls-1"
        d="M681.16,101.84V643.57c0,26.82,21.75,48.57,48.57,48.57h5.71c26.82,0,48.57-21.75,48.57-48.57V48.7c0-23.35-18.94-42.29-42.29-42.29-11.68,0-22.24,4.73-29.9,12.39-7.66,7.66-12.39,18.22-12.39,29.9v15.18c-11.14,8.89-18.29,22.59-18.29,37.97Z" />
    <rect fill="#242424" x="651.45" y="0" width="48" height="478.43" rx="9.7" ry="9.7"/>
    <path fill="#d8dcdc" class="cls-1"
        d="M228.58,101.84V643.57c0,26.82,21.75,48.57,48.57,48.57h5.71c26.82,0,48.57-21.75,48.57-48.57V48.7c0-23.35-18.94-42.29-42.29-42.29-11.68,0-22.24,4.73-29.9,12.39-7.66,7.66-12.39,18.22-12.39,29.9v15.18c-11.14,8.89-18.29,22.59-18.29,37.97Z" />
    <rect fill="#242424" class="cls-2" x="198.86" y="0" width="48" height="478.43" rx="9.71" ry="9.71" />
</svg>